TITLE ""
FILE "Disc6Track07.mp3" MP3
  TRACK 01 AUDIO
    TITLE "Disc6Track07_01"
    INDEX 01 00:00:00
  TRACK 02 AUDIO
    TITLE "Disc6Track07_02"
    INDEX 01 00:01:02
  TRACK 03 AUDIO
    TITLE "Disc6Track07_03"
    INDEX 01 00:02:54
  TRACK 04 AUDIO
    TITLE "Disc6Track07_04"
    INDEX 01 00:03:67
  TRACK 05 AUDIO
    TITLE "Disc6Track07_05"
    INDEX 01 00:08:61
  TRACK 06 AUDIO
    TITLE "Disc6Track07_06"
    INDEX 01 00:09:17
  TRACK 07 AUDIO
    TITLE "Disc6Track07_07"
    INDEX 01 00:10:28
  TRACK 08 AUDIO
    TITLE "Disc6Track07_08"
    INDEX 01 00:12:25
  TRACK 09 AUDIO
    TITLE "Disc6Track07_09"
    INDEX 01 00:13:36
  TRACK 10 AUDIO
    TITLE "Disc6Track07_10"
    INDEX 01 00:16:05
  TRACK 11 AUDIO
    TITLE "Disc6Track07_11"
    INDEX 01 00:16:35
  TRACK 12 AUDIO
    TITLE "Disc6Track07_12"
    INDEX 01 00:17:50
  TRACK 13 AUDIO
    TITLE "Disc6Track07_13"
    INDEX 01 00:18:67
  TRACK 14 AUDIO
    TITLE "Disc6Track07_14"
    INDEX 01 00:20:09
  TRACK 15 AUDIO
    TITLE "Disc6Track07_15"
    INDEX 01 00:20:46
  TRACK 16 AUDIO
    TITLE "Disc6Track07_16"
    INDEX 01 00:21:58
  TRACK 17 AUDIO
    TITLE "Disc6Track07_17"
    INDEX 01 00:23:41
  TRACK 18 AUDIO
    TITLE "Disc6Track07_18"
    INDEX 01 00:24:52
  TRACK 19 AUDIO
    TITLE "Disc6Track07_19"
    INDEX 01 00:26:55
  TRACK 20 AUDIO
    TITLE "Disc6Track07_20"
    INDEX 01 00:27:11
  TRACK 21 AUDIO
    TITLE "Disc6Track07_21"
    INDEX 01 00:28:32
  TRACK 22 AUDIO
    TITLE "Disc6Track07_22"
    INDEX 01 00:29:57
  TRACK 23 AUDIO
    TITLE "Disc6Track07_23"
    INDEX 01 00:31:05
  TRACK 24 AUDIO
    TITLE "Disc6Track07_24"
    INDEX 01 00:31:42
  TRACK 25 AUDIO
    TITLE "Disc6Track07_25"
    INDEX 01 00:32:53
  TRACK 26 AUDIO
    TITLE "Disc6Track07_26"
    INDEX 01 00:35:38
  TRACK 27 AUDIO
    TITLE "Disc6Track07_27"
    INDEX 01 00:36:45
  TRACK 28 AUDIO
    TITLE "Disc6Track07_28"
    INDEX 01 00:38:40
  TRACK 29 AUDIO
    TITLE "Disc6Track07_29"
    INDEX 01 00:38:72
  TRACK 30 AUDIO
    TITLE "Disc6Track07_30"
    INDEX 01 00:40:10
  TRACK 31 AUDIO
    TITLE "Disc6Track07_31"
    INDEX 01 00:42:09
  TRACK 32 AUDIO
    TITLE "Disc6Track07_32"
    INDEX 01 00:43:24
  TRACK 33 AUDIO
    TITLE "Disc6Track07_33"
    INDEX 01 00:43:57
  TRACK 34 AUDIO
    TITLE "Disc6Track07_34"
    INDEX 01 00:44:70
  TRACK 35 AUDIO
    TITLE "Disc6Track07_35"
    INDEX 01 00:47:49
  TRACK 36 AUDIO
    TITLE "Disc6Track07_36"
    INDEX 01 00:48:58
  TRACK 37 AUDIO
    TITLE "Disc6Track07_37"
    INDEX 01 00:52:33
  TRACK 38 AUDIO
    TITLE "Disc6Track07_38"
    INDEX 01 00:52:62
  TRACK 39 AUDIO
    TITLE "Disc6Track07_39"
    INDEX 01 00:54:02
  TRACK 40 AUDIO
    TITLE "Disc6Track07_40"
    INDEX 01 00:55:52
  TRACK 41 AUDIO
    TITLE "Disc6Track07_41"
    INDEX 01 00:56:68
  TRACK 42 AUDIO
    TITLE "Disc6Track07_42"
    INDEX 01 00:59:27
  TRACK 43 AUDIO
    TITLE "Disc6Track07_43"
    INDEX 01 00:59:58
  TRACK 44 AUDIO
    TITLE "Disc6Track07_44"
    INDEX 01 01:00:71
  TRACK 45 AUDIO
    TITLE "Disc6Track07_45"
    INDEX 01 01:01:57
  TRACK 46 AUDIO
    TITLE "Disc6Track07_46"
    INDEX 01 01:02:70
  TRACK 47 AUDIO
    TITLE "Disc6Track07_47"
    INDEX 01 01:07:64
  TRACK 48 AUDIO
    TITLE "Disc6Track07_48"
    INDEX 01 01:08:16
  TRACK 49 AUDIO
    TITLE "Disc6Track07_49"
    INDEX 01 01:09:39
  TRACK 50 AUDIO
    TITLE "Disc6Track07_50"
    INDEX 01 01:11:24
  TRACK 51 AUDIO
    TITLE "Disc6Track07_51"
    INDEX 01 01:12:43
  TRACK 52 AUDIO
    TITLE "Disc6Track07_52"
    INDEX 01 01:14:22
  TRACK 53 AUDIO
    TITLE "Disc6Track07_53"
    INDEX 01 01:14:54
  TRACK 54 AUDIO
    TITLE "Disc6Track07_54"
    INDEX 01 01:15:73
  TRACK 55 AUDIO
    TITLE "Disc6Track07_55"
    INDEX 01 01:17:03
  TRACK 56 AUDIO
    TITLE "Disc6Track07_56"
    INDEX 01 01:18:24
  TRACK 57 AUDIO
    TITLE "Disc6Track07_57"
    INDEX 01 01:18:63
  TRACK 58 AUDIO
    TITLE "Disc6Track07_58"
    INDEX 01 01:19:71
  TRACK 59 AUDIO
    TITLE "Disc6Track07_59"
    INDEX 01 01:21:03
  TRACK 60 AUDIO
    TITLE "Disc6Track07_60"
    INDEX 01 01:22:12
  TRACK 61 AUDIO
    TITLE "Disc6Track07_61"
    INDEX 01 01:22:49
  TRACK 62 AUDIO
    TITLE "Disc6Track07_62"
    INDEX 01 01:23:59
  TRACK 63 AUDIO
    TITLE "Disc6Track07_63"
    INDEX 01 01:24:68
  TRACK 64 AUDIO
    TITLE "Disc6Track07_64"
    INDEX 01 01:26:04
  TRACK 65 AUDIO
    TITLE "Disc6Track07_65"
    INDEX 01 01:26:31
  TRACK 66 AUDIO
    TITLE "Disc6Track07_66"
    INDEX 01 01:27:56
  TRACK 67 AUDIO
    TITLE "Disc6Track07_67"
    INDEX 01 01:29:53
  TRACK 68 AUDIO
    TITLE "Disc6Track07_68"
    INDEX 01 01:31:01
  TRACK 69 AUDIO
    TITLE "Disc6Track07_69"
    INDEX 01 01:34:33
